<svg width="16" height="16" viewBox="0 0 16 16" fill="none" xmlns="http://www.w3.org/2000/svg">
<path d="M6.56005 11.3867C6.4725 11.3868 6.38578 11.3695 6.3049 11.336C6.22401 11.3025 6.15055 11.2533 6.08872 11.1913L3.52872 8.63133C3.46505 8.56983 3.41426 8.49627 3.37932 8.41493C3.34438 8.3336 3.32599 8.24612 3.32522 8.1576C3.32445 8.06908 3.34132 7.98129 3.37484 7.89936C3.40836 7.81743 3.45786 7.74299 3.52046 7.6804C3.58305 7.6178 3.65749 7.5683 3.73942 7.53478C3.82135 7.50126 3.90914 7.48439 3.99766 7.48516C4.08617 7.48593 4.17365 7.50432 4.25499 7.53926C4.33633 7.5742 4.40989 7.62499 4.47139 7.68866L6.56005 9.77733L11.5287 4.80866C11.6545 4.68722 11.8229 4.62003 11.9977 4.62155C12.1725 4.62307 12.3397 4.69318 12.4633 4.81678C12.5869 4.94039 12.657 5.1076 12.6585 5.28239C12.66 5.45719 12.5928 5.62559 12.4714 5.75133L7.03139 11.1913C6.96956 11.2533 6.8961 11.3025 6.81521 11.336C6.73432 11.3695 6.64761 11.3868 6.56005 11.3867Z" fill="#171717"/>
</svg>
